<?xml version="1.0" encoding="UTF-8" standalone="yes"?>
<svg width="32" height="32" color-interpolation="linearRGB">
 <g>
  <path style="fill:none; stroke:#010101; stroke-width:1.6666"
        d="M5.76 7.38c0 0.92 0 16.29 0 17.22c0 0.92 0.75 1.68 1.68 1.68c0.92 0 16.09 0 17.02 0c0.92 0 1.68 -0.75 1.68 -1.68c0 -0.92 0 -16.29 0 -17.22c0 -0.92 -0.75 -1.68 -1.68 -1.68c-0.92 0 -16.09 0 -17.02 0c-0.92 0 -1.68 0.75 -1.68 1.68z"
  />
  <linearGradient id="gradient0" gradientUnits="userSpaceOnUse" x1="26.35" y1="5.76" x2="26.35" y2="26.42">
   <stop offset="0" stop-color="#7d7d7d"/>
   <stop offset="1" stop-color="#ffffff"/>
  </linearGradient>
  <path style="fill:url(#gradient0)"
        d="M5.76 7.38c0 0.92 0 16.29 0 17.22c0 0.92 0.75 1.68 1.68 1.68c0.92 0 16.09 0 17.02 0c0.92 0 1.68 -0.75 1.68 -1.68c0 -0.92 0 -16.29 0 -17.22c0 -0.92 -0.75 -1.68 -1.68 -1.68c-0.92 0 -16.09 0 -17.02 0c-0.92 0 -1.68 0.75 -1.68 1.68z"
  />
  <path style="fill:none; stroke:#010101; stroke-width:2; stroke-linecap:round; stroke-linejoin:round"
        d="M7.33 8.21c2.98 -1.53 4.67 7.57 7.25 7.41c2.57 -0.16 11.41 -15.81 14.18 -12.81c3.86 4.19 -10.63 21.19 -14.66 20.46c-4.02 -0.72 -8.96 -13.94 -6.76 -15.06z"
  />
  <linearGradient id="gradient1" gradientUnits="userSpaceOnUse" x1="6" y1="2" x2="30" y2="2">
   <stop offset="0" stop-color="#00337f"/>
   <stop offset="1" stop-color="#e5f3fb"/>
  </linearGradient>
  <path style="fill:url(#gradient1)"
        d="M7.33 8.21c2.98 -1.53 4.67 7.57 7.25 7.41c2.57 -0.16 11.41 -15.81 14.18 -12.81c3.86 4.19 -10.63 21.19 -14.66 20.46c-4.02 -0.72 -8.96 -13.94 -6.76 -15.06z"
  />
 </g>
</svg>
