<?xml version="1.0" encoding="UTF-8" standalone="yes"?>
<svg width="18" height="18" color-interpolation="linearRGB">
 <g>
  <path style="fill:#eed71b"
        d="M9.59 11.9c4.05 0 7.34 -2.38 7.34 -5.32c0 -2.94 -3.28 -5.32 -7.34 -5.32c-4.05 0 -7.34 2.38 -7.34 5.32c0 2.94 1.46 4.89 1.46 4.89l0.56 4.68l2.59 -4.62c0 0 1.06 0.21 2.71 0.37z"
  />
  <path style="fill:none; stroke:#010100; stroke-width:1; stroke-linejoin:round"
        d="M9.59 11.9c4.05 0 7.34 -2.38 7.34 -5.32c0 -2.94 -3.28 -5.32 -7.34 -5.32c-4.05 0 -7.34 2.38 -7.34 5.32c0 2.94 1.46 4.89 1.46 4.89l0.56 4.68l2.59 -4.62c0 0 1.06 0.21 2.71 0.37z"
  />
  <text x="0" y="0"
        style="fill:##010101; font-family:Comic Sans MS; font-style:normal; font-weight:bold; font-size:1.8"
        transform="matrix(1,0,0,1,16.0937,5.9375)"
  >
    <tspan x="0" y="0">Jesus lebt</tspan>
    <tspan x="0" y="2.1768">Gott ist gut</tspan>
  </text>
 </g>
</svg>
