<?xml version="1.0" encoding="UTF-8" standalone="yes"?>
<svg width="512" height="512" color-interpolation="linearRGB">
 <g>
  <path style="fill:#000000"
        d="M132.69 120.78l-36.54 -16.28l11.15 312.71l176.69 89.14c0 0 1.16 -32.49 1.62 -45.44c19.37 9.78 74 37.33 74 37.33l13.84 -388.19l-245.06 -109.24l4.28 119.97z"
  />
  <path style="fill:#000000; fill-opacity:0.2"
        d="M281.03 355.25l-0.59 150.87l45.39 -24.28l33.8 16.39l146.17 -123.33l-1.62 -32.89l-144.8 -9.9l-78.34 23.15z"
  />
  <linearGradient id="gradient0" gradientUnits="userSpaceOnUse" x1="262.96" y1="109.3" x2="241.35" y2="275.01">
   <stop offset="0" stop-color="#fdfebb"/>
   <stop offset="1" stop-color="#ffeb60"/>
  </linearGradient>
  <path style="fill:url(#gradient0)"
        d="M348.89 479.07l-195.52 -98.63l-12.87 -360.75l221.26 98.63l-12.86 360.75z"
  />
  <path style="fill:#000000"
        d="M111 414.49l169.42 85.46l10.83 -303.99l-191.08 -85.18l10.82 303.71z"
  />
  <path style="fill:#3d3d3d; fill-opacity:0.2"
        d="M154.72 392.95l169.41 85.46l12.73 -296.52l-196.14 -90.74l13.98 301.8z"
  />
  <path style="fill:#000000"
        d="M96.84 123.85l10.46 293.35l176.69 89.14l11.16 -313.14l-199.02 -88.72l0.69 19.36z"
  />
  <linearGradient id="gradient1" gradientUnits="userSpaceOnUse" x1="95.95" y1="413.19" x2="312.83" y2="166.32">
   <stop offset="0.0055" stop-color="#d9d8ff"/>
   <stop offset="0.5139" stop-color="#fdfeed"/>
   <stop offset="1" stop-color="#9a99cd"/>
  </linearGradient>
  <path style="fill:url(#gradient1)"
        d="M273.28 487.18l-154.85 -78.11l-10.18 -285.7l175.22 78.11l-10.18 285.7z"
  />
  <path style="fill:#000000"
        d="M113.69 228.89l-26.67 18.99c0 0 0 3.08 0 4.48c-8.47 -1.39 -45.56 -7.5 -45.56 -7.5l-28.34 20.18v66.31c0 0 67.49 11.11 73.91 12.17c0 4.65 0 33.15 0 33.15l82.82 -52.13l28.47 -20.28l-81.18 -77.84l-3.44 2.45z"
  />
  <linearGradient id="gradient2" gradientUnits="userSpaceOnUse" x1="70.5" y1="275.7" x2="60.13" y2="239.23">
   <stop offset="0" stop-color="#ff0000"/>
   <stop offset="1" stop-color="#7f0000"/>
  </linearGradient>
  <path style="fill:url(#gradient2)"
        d="M116.65 260.86l-73.91 -12.17l-25.19 17.94l73.91 12.17l25.19 -17.94z"
  />
  <linearGradient id="gradient3" gradientUnits="userSpaceOnUse" x1="164.94" y1="270.98" x2="127.23" y2="280.29">
   <stop offset="0" stop-color="#ff0000"/>
   <stop offset="1" stop-color="#7f0000"/>
  </linearGradient>
  <path style="fill:url(#gradient3)"
        d="M166.97 321.87l25.19 -17.94l-75.51 -72.4l-25.19 17.94l75.51 72.4z"
  />
  <linearGradient id="gradient4" gradientUnits="userSpaceOnUse" x1="50.49" y1="273.03" x2="94.1" y2="327.48">
   <stop offset="0" stop-color="#ff0000"/>
   <stop offset="1" stop-color="#7f0000"/>
  </linearGradient>
  <path style="fill:url(#gradient4)"
        d="M17.55 328.5l73.91 12.17v28.72l75.51 -47.52l-75.51 -72.4v29.34l-73.91 -12.17v61.86z"
  />
  <path style="fill:#ffffff; fill-opacity:0.298"
        d="M49.09 298.14c38.9 4.41 79.1 37.79 115.72 23.5c-2.54 -2.44 -67.08 -64.31 -71.87 -68.91c0 5.15 0 26.07 0 26.07v1.44c0 0 -70.51 -11.61 -73.91 -12.17c0 1.36 0 15.86 0 30.21c9.7 -1.71 19.88 -1.76 30.06 -0.15z"
  />
 </g>
</svg>
