<?xml version="1.0" encoding="UTF-8" standalone="yes"?>
<svg width="512" height="512" color-interpolation="linearRGB">
 <g>
  <path style="fill:none; stroke:#5b5b5b; stroke-width:10; stroke-linecap:round"
        d="M37.24 268.64h472"
  />
  <path style="fill:none; stroke:#5b5b5b; stroke-width:10; stroke-linecap:round"
        d="M273.24 32.64v472"
  />
  <path style="fill:none; stroke:#5b5b5b; stroke-width:10; stroke-linecap:round"
        d="M440.11 101.76l-333.75 333.75"
  />
  <path style="fill:none; stroke:#5b5b5b; stroke-width:10; stroke-linecap:round"
        d="M440.11 435.52l-333.75 -333.75"
  />
  <path style="fill:none; stroke:#5b5b5b; stroke-width:10; stroke-linecap:round"
        d="M175.86 266.66l32.18 -63.21l65.51 -31.03l63.21 31.03l29.88 65.51l-31.03 62.06l-62.06 35.63l-64.36 -33.33l-33.33 -66.66z"
  />
  <path style="fill:none; stroke:#5b5b5b; stroke-width:10; stroke-linecap:round"
        d="M112.64 266.66l51.72 -106.89l109.19 -52.87l102.29 54.02l48.27 108.04l-42.52 106.89l-108.04 49.42l-109.19 -49.42l-51.72 -109.19z"
  />
  <path style="fill:#5b5b5b"
        d="M22.97 38.87c0 10.05 0 68.35 0 78.41c0 10.05 8.08 18.2 18.05 18.2c9.97 0 130.81 0 140.78 0c9.97 0 18.05 -8.14 18.05 -18.2c0 -10.05 0 -68.35 0 -78.41c0 -10.05 -8.08 -18.2 -18.05 -18.2c-9.97 0 -130.81 0 -140.78 0c-9.97 0 -18.05 8.14 -18.05 18.2z"
  />
  <path style="fill:#5b5b5b"
        d="M342.51 419.33c0 10.05 0 68.35 0 78.41c0 10.05 8.08 18.2 18.05 18.2c9.97 0 130.81 0 140.78 0c9.97 0 18.05 -8.14 18.05 -18.2c0 -10.05 0 -68.35 0 -78.41c0 -10.05 -8.08 -18.2 -18.05 -18.2c-9.97 0 -130.81 0 -140.78 0c-9.97 0 -18.05 8.14 -18.05 18.2z"
  />
  <path style="fill:#5b5b5b"
        d="M22.97 418.18c0 10.05 0 68.35 0 78.41c0 10.05 8.08 18.2 18.05 18.2c9.97 0 130.81 0 140.78 0c9.97 0 18.05 -8.14 18.05 -18.2c0 -10.05 0 -68.35 0 -78.41c0 -10.05 -8.08 -18.2 -18.05 -18.2c-9.97 0 -130.81 0 -140.78 0c-9.97 0 -18.05 8.14 -18.05 18.2z"
  />
  <path style="fill:#5b5b5b"
        d="M342.51 37.72c0 10.05 0 68.35 0 78.41c0 10.05 8.08 18.2 18.05 18.2c9.97 0 130.81 0 140.78 0c9.97 0 18.05 -8.14 18.05 -18.2c0 -10.05 0 -68.35 0 -78.41c0 -10.05 -8.08 -18.2 -18.05 -18.2c-9.97 0 -130.81 0 -140.78 0c-9.97 0 -18.05 8.14 -18.05 18.2z"
  />
  <path style="fill:none; stroke:#010101; stroke-width:10; stroke-linecap:round"
        d="M20 256h472"
  />
  <path style="fill:none; stroke:#010101; stroke-width:10; stroke-linecap:round"
        d="M256 20v472"
  />
  <path style="fill:none; stroke:#010101; stroke-width:10; stroke-linecap:round"
        d="M422.87 89.12l-333.75 333.75"
  />
  <path style="fill:none; stroke:#010101; stroke-width:10; stroke-linecap:round"
        d="M422.87 422.87l-333.75 -333.75"
  />
  <path style="fill:none; stroke:#010101; stroke-width:10; stroke-linecap:round"
        d="M158.62 254.02l32.18 -63.21l65.51 -31.03l63.21 31.03l29.88 65.51l-31.03 62.06l-62.06 35.63l-64.36 -33.33l-33.33 -66.66z"
  />
  <path style="fill:none; stroke:#010101; stroke-width:10; stroke-linecap:round"
        d="M95.4 254.02l51.72 -106.89l109.19 -52.87l102.29 54.02l48.27 108.04l-42.52 106.89l-108.04 49.42l-109.19 -49.42l-51.72 -109.19z"
  />
  <linearGradient id="gradient0" gradientUnits="userSpaceOnUse" x1="1.15" y1="124.45" x2="1.59" y2="3.44">
   <stop offset="0.508" stop-color="#a70404"/>
   <stop offset="1" stop-color="#ffffff"/>
  </linearGradient>
  <path style="fill:url(#gradient0)"
        d="M5.73 26.23c0 10.05 0 68.35 0 78.41c0 10.05 8.08 18.2 18.05 18.2c9.97 0 130.81 0 140.78 0c9.97 0 18.05 -8.14 18.05 -18.2c0 -10.05 0 -68.35 0 -78.41c0 -10.05 -8.08 -18.2 -18.05 -18.2c-9.97 0 -130.81 0 -140.78 0c-9.97 0 -18.05 8.14 -18.05 18.2z"
  />
  <path style="fill:none; stroke:#010101; stroke-width:10"
        d="M2.29 21.4c0 10.55 0 71.76 0 82.32c0 10.55 8.55 19.1 19.11 19.1c10.55 0 138.43 0 148.98 0c10.55 0 19.11 -8.55 19.11 -19.1c0 -10.55 0 -71.76 0 -82.32c0 -10.55 -8.55 -19.1 -19.11 -19.1c-10.55 0 -138.43 0 -148.98 0c-10.55 0 -19.11 8.55 -19.11 19.1z"
        transform="matrix(0.9449,0,0,0.9525,3.5583,5.8421)"
  />
  <linearGradient id="gradient1" gradientUnits="userSpaceOnUse" x1="320.69" y1="504.91" x2="321.13" y2="383.9">
   <stop offset="0.508" stop-color="#00337f"/>
   <stop offset="1" stop-color="#ffffff"/>
  </linearGradient>
  <path style="fill:url(#gradient1)"
        d="M325.27 406.69c0 10.05 0 68.35 0 78.41c0 10.05 8.08 18.2 18.05 18.2c9.97 0 130.81 0 140.78 0c9.97 0 18.05 -8.14 18.05 -18.2c0 -10.05 0 -68.35 0 -78.41c0 -10.05 -8.08 -18.2 -18.05 -18.2c-9.97 0 -130.81 0 -140.78 0c-9.97 0 -18.05 8.14 -18.05 18.2z"
  />
  <path style="fill:none; stroke:#010101; stroke-width:10"
        d="M2.29 21.4c0 10.55 0 71.76 0 82.32c0 10.55 8.55 19.1 19.11 19.1c10.55 0 138.43 0 148.98 0c10.55 0 19.11 -8.55 19.11 -19.1c0 -10.55 0 -71.76 0 -82.32c0 -10.55 -8.55 -19.1 -19.11 -19.1c-10.55 0 -138.43 0 -148.98 0c-10.55 0 -19.11 8.55 -19.11 19.1z"
        transform="matrix(0.9449,0,0,0.9525,323.0985,386.3018)"
  />
  <linearGradient id="gradient2" gradientUnits="userSpaceOnUse" x1="1.15" y1="503.76" x2="1.59" y2="382.75">
   <stop offset="0.508" stop-color="#007f33"/>
   <stop offset="1" stop-color="#ffffff"/>
  </linearGradient>
  <path style="fill:url(#gradient2)"
        d="M5.73 405.54c0 10.05 0 68.35 0 78.41c0 10.05 8.08 18.2 18.05 18.2c9.97 0 130.81 0 140.78 0c9.97 0 18.05 -8.14 18.05 -18.2c0 -10.05 0 -68.35 0 -78.41c0 -10.05 -8.08 -18.2 -18.05 -18.2c-9.97 0 -130.81 0 -140.78 0c-9.97 0 -18.05 8.14 -18.05 18.2z"
  />
  <path style="fill:none; stroke:#010101; stroke-width:10"
        d="M2.29 21.4c0 10.55 0 71.76 0 82.32c0 10.55 8.55 19.1 19.11 19.1c10.55 0 138.43 0 148.98 0c10.55 0 19.11 -8.55 19.11 -19.1c0 -10.55 0 -71.76 0 -82.32c0 -10.55 -8.55 -19.1 -19.11 -19.1c-10.55 0 -138.43 0 -148.98 0c-10.55 0 -19.11 8.55 -19.11 19.1z"
        transform="matrix(0.9449,0,0,0.9525,3.5583,385.1524)"
  />
  <linearGradient id="gradient3" gradientUnits="userSpaceOnUse" x1="320.69" y1="123.3" x2="321.13" y2="2.29">
   <stop offset="0.508" stop-color="#ffaa00"/>
   <stop offset="1" stop-color="#ffffff"/>
  </linearGradient>
  <path style="fill:url(#gradient3)"
        d="M325.27 25.08c0 10.05 0 68.35 0 78.41c0 10.05 8.08 18.2 18.05 18.2c9.97 0 130.81 0 140.78 0c9.97 0 18.05 -8.14 18.05 -18.2c0 -10.05 0 -68.35 0 -78.41c0 -10.05 -8.08 -18.2 -18.05 -18.2c-9.97 0 -130.81 0 -140.78 0c-9.97 0 -18.05 8.14 -18.05 18.2z"
  />
  <path style="fill:none; stroke:#010101; stroke-width:10"
        d="M2.29 21.4c0 10.55 0 71.76 0 82.32c0 10.55 8.55 19.1 19.11 19.1c10.55 0 138.43 0 148.98 0c10.55 0 19.11 -8.55 19.11 -19.1c0 -10.55 0 -71.76 0 -82.32c0 -10.55 -8.55 -19.1 -19.11 -19.1c-10.55 0 -138.43 0 -148.98 0c-10.55 0 -19.11 8.55 -19.11 19.1z"
        transform="matrix(0.9449,0,0,0.9525,323.0985,4.6926)"
  />
 </g>
</svg>
