<?xml version="1.0" encoding="UTF-8" standalone="yes"?>
<svg width="18" height="18" color-interpolation="linearRGB">
 <g>
  <path style="fill:none; stroke:#000001; stroke-width:5.3688"
        d="M1.61 12.23c0 2.3 0 8.79 0 11.1c0 2.3 1.86 4.17 4.17 4.17c2.3 0 22.25 0 24.55 0c2.3 0 4.17 -1.86 4.17 -4.17c0 -2.3 0 -8.79 0 -11.1c0 -2.3 -1.86 -4.17 -4.17 -4.17c-2.3 0 -22.25 0 -24.55 0c-2.3 0 -4.17 1.86 -4.17 4.17z"
        transform="matrix(0.425,0,0,0.6,1.3097,-1.7516)"
  />
  <linearGradient id="gradient0" gradientUnits="userSpaceOnUse" x1="13.2" y1="-1.15" x2="13.2" y2="19.24">
   <stop offset="0" stop-color="#000000"/>
   <stop offset="1" stop-color="#ffffff"/>
  </linearGradient>
  <path style="fill:url(#gradient0)"
        d="M1.99 5.58c0 1.38 0 5.27 0 6.66c0 1.38 0.79 2.5 1.77 2.5c0.97 0 9.45 0 10.43 0c0.97 0 1.77 -1.12 1.77 -2.5c0 -1.38 0 -5.27 0 -6.66c0 -1.38 -0.79 -2.5 -1.77 -2.5c-0.97 0 -9.45 0 -10.43 0c-0.97 0 -1.77 1.12 -1.77 2.5z"
  />
  <path style="fill:none; stroke:#010100; stroke-width:1.7999"
        d="M11.06 11.64h-3.96l-0.63 1.8h-2.54l3.64 -9h3.02l3.64 9h-2.54l-0.61 -1.8z
           M7.73 9.83h2.68l-1.33 -3.38l-1.35 3.38z"
  />
  <path style="fill:#ffaa00"
        d="M11.06 11.64h-3.96l-0.63 1.8h-2.54l3.64 -9h3.02l3.64 9h-2.54l-0.61 -1.8z
           M7.73 9.83h2.68l-1.33 -3.38l-1.35 3.38z"
  />
 </g>
</svg>
