<?xml version="1.0" encoding="UTF-8" standalone="yes"?>
<svg width="18" height="18" color-interpolation="linearRGB">
 <g>
  <path
        style="fill:none; stroke:##010101; stroke-width:1"
        d="M2.9687 2.9062 L2.625 16.0625"
  />
  <path
        style="fill:none; stroke:##010101; stroke-width:1"
        d="M2.661 5.5091 L7.9618 6.0182"
  />
  <path
        style="fill:none; stroke:##010101; stroke-width:1"
        d="M2.7703 9.375 L11.6873 9.9062"
  />
  <path
        style="fill:none; stroke:##010101; stroke-width:1"
        d="M2.7031 14.0019 L11.8671 14.5498"
  />
  <path style="fill:#00337f"
        d="M6.87 4.63c0 0.38 0 1.39 0 1.78c0 0.38 0.31 0.7 0.7 0.7c0.38 0 3.7 0 4.09 0c0.38 0 0.7 -0.31 0.7 -0.7c0 -0.38 0 -1.39 0 -1.78c0 -0.38 -0.31 -0.7 -0.7 -0.7c-0.38 0 -3.7 0 -4.09 0c-0.38 0 -0.7 0.31 -0.7 0.7z"
  />
  <path style="fill:#197f00"
        d="M10.06 8.45c0 0.38 0 1.39 0 1.78c0 0.38 0.31 0.7 0.7 0.7c0.38 0 3.7 0 4.09 0c0.38 0 0.7 -0.31 0.7 -0.7c0 -0.38 0 -1.39 0 -1.78c0 -0.38 -0.31 -0.7 -0.7 -0.7c-0.38 0 -3.7 0 -4.09 0c-0.38 0 -0.7 0.31 -0.7 0.7z"
  />
  <path style="fill:#ff0000"
        d="M10.33 13.32c0 0.43 0 1.56 0 1.99c0 0.43 0.36 0.78 0.8 0.78c0.44 0 4.27 0 4.71 0c0.44 0 0.8 -0.35 0.8 -0.78c0 -0.43 0 -1.56 0 -1.99c0 -0.43 -0.36 -0.78 -0.8 -0.78c-0.44 0 -4.27 0 -4.71 0c-0.44 0 -0.8 0.35 -0.8 0.78z"
  />
 </g>
</svg>
